PathFileType	4	(X/Y/Z)	14_2_96_p1_0-230_filt_butterworth.trc
DataRate	CameraRate	NumFrames	NumMarkers	Units	OrigDataRate	OrigDataStartFrame	OrigNumFrames
60.0	60.0	6	27	m	60.0	28	230
Frame#	Time	RHip			RKnee			RAnkle			RBigToe			RSmallToe			RHeel			LHip			LKnee			LAnkle			LBigToe			LSmallToe			LHeel			Neck			Head			Nose			RShoulder			RElbow			RWrist			RThumb			RIndex			RPinky			LShoulder			LElbow			LWrist			LThumb			LIndex			LPinky			
		X1	Y1	Z1	X2	Y2	Z2	X3	Y3	Z3	X4	Y4	Z4	X5	Y5	Z5	X6	Y6	Z6	X7	Y7	Z7	X8	Y8	Z8	X9	Y9	Z9	X10	Y10	Z10	X11	Y11	Z11	X12	Y12	Z12	X13	Y13	Z13	X14	Y14	Z14	X15	Y15	Z15	X16	Y16	Z16	X17	Y17	Z17	X18	Y18	Z18	X19	Y19	Z19	X20	Y20	Z20	X21	Y21	Z21	X22	Y22	Z22	X23	Y23	Z23	X24	Y24	Z24	X25	Y25	Z25	X26	Y26	Z26	X27	Y27	Z27	
28	0.4666666666666667	0.3110287165214603	0.6846321148738579	0.8408330298825379	0.3040348521840487	0.24923921310718283	0.8700247090310375	0.28656243202392456	-0.19381186504723363	0.9234795481491366	0.26934399349598803	-0.16646020565596692	0.6988112941500941	0.327310041153415	-0.180022955463519	0.7188692000113865	0.2768848228685148	-0.2638986574120607	0.9689524634761498	0.0836528627595131	0.6751444556171922	0.8579032844718493	0.0933345255922191	0.26627282521376666	0.8728911055101773	0.1071197474762498	-0.17220245681658813	0.8688453646203538	0.11840138071011702	-0.14010708302250247	0.6820086994201847	0.06688540612498257	-0.15948065680026208	0.7224348430385585	0.13169076257611634	-0.24984767232141666	0.9387418347000704	0.21745321787413346	1.322722852165106	0.8615118197194662	0.2195137955549389	1.578693065930499	0.8522094713144013	0.2147262404093595	1.4422835532832996	0.7785498446017767	0.3916376140205115	1.2277788608652758	0.8512244630353208	0.40555471591576475	1.0058490633652382	0.7405742063327615	0.25060754322048095	0.8035361471204374	0.6494955484630818	0.1656216535795891	0.7213640209748949	0.6740707557942685	0.16147799193087564	0.7038068658482446	0.6581096815490414	0.16661970132952736	0.7043773528842606	0.644236864991165	0.046280294972286126	1.234756516861422	0.8847382046401512	-0.008721001198511498	0.9886685427360482	0.7884509701086243	0.1607297961231519	0.8555136891861069	0.6498350058410063	0.2579870803080192	0.8218068791760673	0.6417209934697401	0.2612151547254997	0.7727949972628433	0.6395890107072876	0.21927789526041425	0.7356124889912279	0.631111456888106	
29	0.4833333333333333	0.3106328633166124	0.684390363750685	0.8394731846319207	0.3037951137614988	0.24891424283300204	0.8700786423512744	0.2863615871431527	-0.1944798600159588	0.9243835323932961	0.26933936562597033	-0.16644042268950082	0.698780083178869	0.32735376346402667	-0.180048794993038	0.718920406026694	0.2765245660355175	-0.26348033255858383	0.9678739482188122	0.08324712884689475	0.6741836481894758	0.8574903337875558	0.0928154657562107	0.26658873343335987	0.8720944045783665	0.10717872580021331	-0.17196065323450388	0.8688638723033449	0.1197262618242814	-0.14181895650119136	0.6843671738796872	0.06718019243253098	-0.15846565908539828	0.7220613971735309	0.13167377482338655	-0.24973805589229642	0.9386100862843847	0.21747423667311397	1.3223969456764424	0.8615317762188974	0.2195515378349897	1.5786863425442101	0.8522242008443917	0.2142592896321932	1.442260480882449	0.7805639352227549	0.3917963394632095	1.2277970368079554	0.8510632374049993	0.40560061596156016	1.0062289849644288	0.7407031165010466	0.2509525470429187	0.8027170220470468	0.6493825089269228	0.16507132548736353	0.7227214835573508	0.6724410831061933	0.16101548152748707	0.7032855983867986	0.6570498592660212	0.16638553295254277	0.7040098216410577	0.6442034615064607	0.04565097025470434	1.2349907238987776	0.8824947070605762	-0.009908204996826389	0.988098799324065	0.7904904155109389	0.16077934309097727	0.8555709937103111	0.6496443916325064	0.2578302155484954	0.8225142932890414	0.6414090169785714	0.2616313568893943	0.7732508613870331	0.6400159816744042	0.22120366334333688	0.7371710302259616	0.627658083426131	
30	0.5	0.3104236573211864	0.6848242737702135	0.8373381208722097	0.30348910153131464	0.24886754726642454	0.8700516576668917	0.28615351087148666	-0.19512921641169195	0.9253298252639546	0.26936474353247797	-0.16638856607668098	0.6988122086159237	0.3273888845011555	-0.18005986340280697	0.7189600320529441	0.2762303288365107	-0.26312185212299766	0.9669379278523764	0.0827830099549835	0.6737336591070127	0.8569588852734408	0.09235681988076687	0.26691769639060536	0.8714882563060051	0.10724592547730287	-0.17168501975173123	0.8688837510805189	0.12160827628124435	-0.14409266662089631	0.6875151016991194	0.06739301299350459	-0.15778153071926984	0.7218778527918718	0.1315922480542118	-0.2494962044909454	0.9382886361224311	0.21751465840546802	1.3218417672299956	0.8615669200273357	0.21964464206941903	1.578673230309327	0.8522756089816519	0.21362584601391144	1.4422638406088513	0.7832883919657851	0.39203121147476366	1.2278892224404452	0.8505074703419445	0.4057008752469212	1.0064875061366492	0.7409590343059501	0.2516692767177449	0.8020083440362508	0.6493967557871247	0.16478990648971836	0.7240439027083646	0.6716741838683877	0.1604250766401904	0.7029091804992448	0.6557018015783305	0.16618417175659636	0.7032855721917877	0.6444318836372935	0.045030609744136	1.2355032858653674	0.8802714108788969	-0.011593531153550423	0.9870623345708095	0.7932732721465064	0.16078112117175475	0.8555415946999443	0.64917508374179	0.25733771686742496	0.8235300512224524	0.6400247838503857	0.2620797934607445	0.7741942799725752	0.6392023011730986	0.22351333350659114	0.7384609705859599	0.6235074620542312	
31	0.5166666666666667	0.3103885207886822	0.6858250982894638	0.8346354287763589	0.30315685844898077	0.24905933551676152	0.8699372565431535	0.2859893722904466	-0.19560699627758688	0.9260870242331763	0.2693905352806697	-0.1663338614127101	0.6988573408489002	0.3274054426820474	-0.1800727387983404	0.719004596802425	0.276033125515947	-0.26286787874552764	0.9662920078871046	0.08231196146921872	0.673770412284871	0.8566343919367558	0.09197967140246452	0.2671723090747664	0.8711083119874244	0.10731194210947262	-0.17141941953537065	0.8689036639283558	0.12355104469328776	-0.14621723425999006	0.6906251001142091	0.06747860734707277	-0.15763343101588972	0.721845135434588	0.13143667484500124	-0.24912455088126045	0.9377616264865344	0.21756766017976414	1.3211336530050077	0.8616112991838081	0.21972926036202936	1.578650837526062	0.8523768237621224	0.21291876822929057	1.4423687816321287	0.7861937859874681	0.3922005375348009	1.2281000224139507	0.8492817254901399	0.40577856275541335	1.0062393119405704	0.7410927873430762	0.2527497467706161	0.8016951032195583	0.649598455137581	0.16500746687304868	0.7257302076523975	0.6719827885571731	0.15988960008470887	0.7030448998489085	0.6537639723543318	0.16606210614704517	0.7026743402493852	0.6441212053249172	0.04449053003254664	1.2362833457259228	0.8782063217098482	-0.013450045946258834	0.9857882006796643	0.7959621711110358	0.1602994987873724	0.8554088449142889	0.6471858241801434	0.25641350351964326	0.8251867339316025	0.6370100900709059	0.2622365872542879	0.7761130576746481	0.6359250245891502	0.22582708397737394	0.739082282575693	0.618368693100837	
32	0.5333333333333333	0.3105053922612737	0.6870492900217207	0.8317438574678893	0.3028158282346904	0.2494395726642691	0.8697326046845981	0.2858988812143072	-0.1958691704195146	0.9265197931637212	0.26937805019759586	-0.166449979473814	0.6988958795069453	0.32739220614134634	-0.18009272239049778	0.7190513478162606	0.27595221236446094	-0.26276348916665904	0.9660751954322164	0.08188289488158526	0.6741109268159855	0.8569118785866028	0.09171260307449342	0.26720693442596943	0.8709465258387035	0.10736077784782713	-0.1712461434470257	0.8689217832515638	0.1249585274618163	-0.14776281229871796	0.6931490087976554	0.06744292298001262	-0.1580271205026273	0.7218530395565974	0.13119185291151453	-0.24861706784145182	0.9369980660353405	0.2176245481670525	1.3203692953955137	0.86165982650191	0.21968236209639927	1.5786151092606064	0.8525455206682009	0.21230894664934186	1.442698303601457	0.7885908409496507	0.3921176905667044	1.2284201389636684	0.8473852681494283	0.4056936627179012	1.0050194579809408	0.7406626852071073	0.2539942886693041	0.8018596537388288	0.6499344402779963	0.16577571025635673	0.7286923920424326	0.6723479382723669	0.15982120805817432	0.7039637861015189	0.6511590510912022	0.16626708047620453	0.7025224312033711	0.6429453058177521	0.04401478459572733	1.237300761295336	0.8762083247738779	-0.015197552263394955	0.9845023516861489	0.7978895688981791	0.15871078478415826	0.8550381121120626	0.6428519461468101	0.2550290732751825	0.827638188913733	0.6319128776355617	0.2619047030314672	0.7789484801844984	0.6295222248169362	0.2274545450776564	0.7390421058886995	0.6115660005660547	
33	0.55	0.31073639891235616	0.6880714730812678	0.8291530404335747	0.30247598307693463	0.24994601364348104	0.8694477186017457	0.28589003115077477	-0.19596841966225456	0.9265422874383326	0.26930495363502005	-0.16687588444033596	0.6989344242191392	0.32734788101379364	-0.18012073133678286	0.7190961838987728	0.2759770225555679	-0.2628143193773411	0.9663091432339871	0.08150394754616996	0.6746493570816697	0.8579797181710211	0.09157779678580441	0.2669717026990012	0.8708915014123458	0.10738119216925933	-0.1712390706916912	0.8689389860096806	0.1253796458879103	-0.14865940814667472	0.6948262899328279	0.06731943544826374	-0.1587723663697021	0.7218728457147494	0.1308477964460384	-0.24795972327645924	0.9359710390430758	0.2176763983518737	1.3196484371811255	0.8617084157499142	0.21940024096924293	1.5785673048148021	0.8527491500586756	0.21200279107433723	1.4433333233226877	0.7898919320165596	0.391687974472809	1.2288045394663625	0.8450664061555611	0.405321682241118	1.0024895661394895	0.7392811061927521	0.25503394632526094	0.802066229535607	0.650123118289143	0.16687602362746495	0.7334487506297563	0.6708058323447476	0.16057685083889503	0.7052746130890227	0.6481540364909382	0.16713958534282183	0.7027212320270475	0.6412420791965449	0.04350802489776175	1.2384382468841142	0.8741930601595747	-0.016590694596865532	0.9833678373972029	0.798728601105078	0.15554857774010594	0.854324941967399	0.6359934202630921	0.253209603861686	0.8303988954987491	0.6246437000479155	0.26105551619787093	0.7817427700572157	0.6203731112200019	0.22741807290622307	0.7385756837299962	0.6025473867120157	
